<svg xmlns="http://www.w3.org/2000/svg" xmlns:xlink="http://www.w3.org/1999/xlink" width="1170" height="1085.5"><rect width="1170" height="1085.5" rx="0" ry="0" class="a"/><svg height="1085.5" viewBox="0 0 117 108.55" width="1170" xmlns="http://www.w3.org/2000/svg" xmlns:xlink="http://www.w3.org/1999/xlink"><style>@keyframes k{0%{transform:translateX(0)}.3%{transform:translateX(-117px)}.8%{transform:translateX(-234px)}2.2%{transform:translateX(-702px)}2.3%{transform:translateX(-1170px)}16.3%{transform:translateX(-1287px)}17.1%{transform:translateX(-1404px)}18.4%{transform:translateX(-1521px)}19.3%{transform:translateX(-1638px)}20.6%{transform:translateX(-1755px)}26.2%{transform:translateX(-1872px)}31%{transform:translateX(-1989px)}35.7%{transform:translateX(-2106px)}37.5%{transform:translateX(-2223px)}42.2%{transform:translateX(-2340px)}43.3%{transform:translateX(-2457px)}53.9%{transform:translateX(-2808px)}54%{transform:translateX(-3042px)}60.8%{transform:translateX(-3744px)}60.9%{transform:translateX(-4329px)}61%{transform:translateX(-4563px)}99.6%{transform:translateX(-4680px)}to{transform:translateX(-4914px)}}.a{fill:#282d35}.c,.d{fill:#b9c0cb;white-space:pre}.d{fill:#a8cc8c}.d,.e,.f{font-weight:700}.e{fill:#66c2cd;white-space:pre}.f{fill:#b9c0cb}.f,.g,.h{white-space:pre}.g{fill:#71bef2;font-weight:700}.h{fill:#a8cc8c}.m{fill:#b9c0cb}.n{fill:#282d35;white-space:pre}</style><g font-family="Monaco,Consolas,Menlo,'Bitstream Vera Sans Mono','Powerline Symbols',monospace" font-size="1.67"><defs><symbol id="1"><text y="1.67" class="c">Restored</text><text x="9.018" y="1.67" class="c">session:</text><text x="18.036" y="1.67" class="c">Fri</text><text x="22.044" y="1.67" class="c">Oct</text><text x="26.052" y="1.67" class="c">15</text><text x="29.058" y="1.67" class="c">19:34:34</text><text x="38.076" y="1.67" class="c">IST</text><text x="42.084" y="1.67" class="c">2021</text></symbol><symbol id="2"><text y="1.67" class="d">➜</text><text x="3.006" y="1.67" class="e">~</text></symbol><symbol id="3"><text y="1.67" class="d">➜</text><text x="3.006" y="1.67" class="e">~</text><text x="5.01" y="1.67" class="c">curl</text></symbol><symbol id="4"><text y="1.67" class="d">➜</text><text x="3.006" y="1.67" class="e">~</text><text x="5.01" y="1.67" class="c">curl</text><text x="10.02" y="1.67" class="c">http://localhost:3000/graph\?githubRepo\=https://github.com/Marvin9/hackernews-stories\&amp;entryFile\=src/inde</text></symbol><symbol id="5"><text y="1.67" class="c">x.tsx</text><text x="6.012" y="1.67" class="c">|</text></symbol><symbol id="6"><text y="1.67" class="c">x.tsx</text><text x="6.012" y="1.67" class="c">|</text><text x="8.016" y="1.67" class="c">jq</text></symbol><symbol id="7"><text x="2.004" y="1.67" class="c">%</text><text x="4.008" y="1.67" class="c">Total</text><text x="13.026" y="1.67" class="c">%</text><text x="15.03" y="1.67" class="c">Received</text><text x="24.048" y="1.67" class="c">%</text><text x="26.052" y="1.67" class="c">Xferd</text><text x="33.066" y="1.67" class="c">Average</text><text x="41.082" y="1.67" class="c">Speed</text><text x="49.098" y="1.67" class="c">Time</text><text x="57.114" y="1.67" class="c">Time</text><text x="66.132" y="1.67" class="c">Time</text><text x="72.144" y="1.67" class="c">Current</text></symbol><symbol id="8"><text x="33.066" y="1.67" class="c">Dload</text><text x="40.08" y="1.67" class="c">Upload</text><text x="49.098" y="1.67" class="c">Total</text><text x="57.114" y="1.67" class="c">Spent</text><text x="66.132" y="1.67" class="c">Left</text><text x="72.144" y="1.67" class="c">Speed</text></symbol><symbol id="9"><text y="1.67" class="c">100</text><text x="6.012" y="1.67" class="c">770</text><text x="11.022" y="1.67" class="c">100</text><text x="17.034" y="1.67" class="c">770</text><text x="24.048" y="1.67" class="c">0</text><text x="30.06" y="1.67" class="c">0</text><text x="35.07" y="1.67" class="c">815</text><text x="44.088" y="1.67" class="c">0</text><text x="46.092" y="1.67" class="c">--:--:--</text><text x="55.11" y="1.67" class="c">--:--:--</text><text x="64.128" y="1.67" class="c">--:--:--</text><text x="75.15" y="1.67" class="c">814</text></symbol><symbol id="10"><text y="1.67" class="f">{</text></symbol><symbol id="11"><text x="2.004" y="1.67" class="g">&quot;error&quot;</text><text x="9.018" y="1.67" class="f">:</text><text x="11.022" y="1.67" class="c">false</text><text x="16.032" y="1.67" class="f">,</text></symbol><symbol id="12"><text x="2.004" y="1.67" class="g">&quot;data&quot;</text><text x="8.016" y="1.67" class="f">:</text><text x="10.02" y="1.67" class="f">{</text></symbol><symbol id="13"><text x="4.008" y="1.67" class="g">&quot;/&quot;</text><text x="7.014" y="1.67" class="f">:</text><text x="9.018" y="1.67" class="f">[</text></symbol><symbol id="14"><text x="6.012" y="1.67" class="h">&quot;/src/index.tsx&quot;</text></symbol><symbol id="15"><text x="4.008" y="1.67" class="f">],</text></symbol><symbol id="16"><text x="4.008" y="1.67" class="g">&quot;/src/index.tsx&quot;</text><text x="20.04" y="1.67" class="f">:</text><text x="22.044" y="1.67" class="f">[</text></symbol><symbol id="17"><text x="6.012" y="1.67" class="h">&quot;react&quot;</text><text x="13.026" y="1.67" class="f">,</text></symbol><symbol id="18"><text x="6.012" y="1.67" class="h">&quot;react-dom&quot;</text><text x="17.034" y="1.67" class="f">,</text></symbol><symbol id="19"><text x="6.012" y="1.67" class="h">&quot;/src/App.tsx&quot;</text></symbol><symbol id="20"><text x="4.008" y="1.67" class="g">&quot;/src/App.tsx&quot;</text><text x="18.036" y="1.67" class="f">:</text><text x="20.04" y="1.67" class="f">[</text></symbol><symbol id="21"><text x="6.012" y="1.67" class="h">&quot;rebass&quot;</text><text x="14.028" y="1.67" class="f">,</text></symbol><symbol id="22"><text x="6.012" y="1.67" class="h">&quot;theme-ui&quot;</text><text x="16.032" y="1.67" class="f">,</text></symbol><symbol id="23"><text x="6.012" y="1.67" class="h">&quot;@rebass/preset&quot;</text><text x="22.044" y="1.67" class="f">,</text></symbol><symbol id="24"><text x="6.012" y="1.67" class="h">&quot;/src/components/index.ts&quot;</text></symbol><symbol id="25"><text x="4.008" y="1.67" class="g">&quot;/src/components/index.ts&quot;</text><text x="30.06" y="1.67" class="f">:</text><text x="32.064" y="1.67" class="f">[</text></symbol><symbol id="26"><text x="6.012" y="1.67" class="h">&quot;/src/components/Stories/index.tsx&quot;</text></symbol><symbol id="27"><text x="4.008" y="1.67" class="g">&quot;/src/components/Stories/index.tsx&quot;</text><text x="39.078" y="1.67" class="f">:</text><text x="41.082" y="1.67" class="f">[</text></symbol><symbol id="28"><text x="6.012" y="1.67" class="h">&quot;/src/components/helpers.ts&quot;</text><text x="34.068" y="1.67" class="f">,</text></symbol><symbol id="29"><text x="6.012" y="1.67" class="h">&quot;/src/components/Stories/components/Loader.tsx&quot;</text><text x="53.106" y="1.67" class="f">,</text></symbol><symbol id="30"><text x="6.012" y="1.67" class="h">&quot;/src/components/Stories/components/Story.tsx&quot;</text></symbol><symbol id="31"><text x="4.008" y="1.67" class="g">&quot;/src/components/helpers.ts&quot;</text><text x="32.064" y="1.67" class="f">:</text><text x="34.068" y="1.67" class="f">[</text></symbol><symbol id="32"><text x="6.012" y="1.67" class="h">&quot;/src/components/Stories/styles.ts&quot;</text></symbol><symbol id="33"><text x="4.008" y="1.67" class="g">&quot;/src/components/Stories/components/Loader.tsx&quot;</text><text x="51.102" y="1.67" class="f">:</text><text x="53.106" y="1.67" class="f">[</text></symbol><symbol id="34"><text x="6.012" y="1.67" class="h">&quot;react&quot;</text></symbol><symbol id="35"><text x="4.008" y="1.67" class="g">&quot;/src/components/Stories/components/Story.tsx&quot;</text><text x="50.1" y="1.67" class="f">:</text><text x="52.104" y="1.67" class="f">[</text></symbol><symbol id="36"><text x="6.012" y="1.67" class="h">&quot;/src/components/Stories/components/styles.ts&quot;</text></symbol><symbol id="37"><text x="4.008" y="1.67" class="g">&quot;/src/components/Stories/components/styles.ts&quot;</text><text x="50.1" y="1.67" class="f">:</text><text x="52.104" y="1.67" class="f">[</text></symbol><symbol id="38"><text x="6.012" y="1.67" class="h">&quot;styled-components&quot;</text><text x="25.05" y="1.67" class="f">,</text></symbol><symbol id="39"><text x="6.012" y="1.67" class="h">&quot;rebass&quot;</text></symbol><symbol id="40"><text x="4.008" y="1.67" class="f">]</text></symbol><symbol id="41"><text x="2.004" y="1.67" class="f">}</text></symbol><symbol id="42"><text y="1.67" class="f">}</text></symbol><symbol id="a"><path fill="transparent" d="M0 0h117v50H0z"/></symbol><symbol id="b"><path fill="#6f7683" d="M0 0h1.102v2.171H0z"/></symbol></defs><path class="a" d="M0 0h117v108.55H0z"/><g style="animation-duration:13.848381s;animation-iteration-count:infinite;animation-name:k;animation-timing-function:steps(1,end)"><svg width="5031"><svg><use xlink:href="#a"/><use xlink:href="#b" x="-.004"/></svg><svg x="117"><use xlink:href="#a"/><use xlink:href="#b" x="-.004" y="2.146"/><use xlink:href="#1"/></svg><svg x="234"><use xlink:href="#a"/><use xlink:href="#b" x="-.004" y="2.146"/><use xlink:href="#1"/></svg><svg x="351"><use xlink:href="#a"/><use xlink:href="#b" x="-.004" y="2.146"/><use xlink:href="#1"/></svg><svg x="468"><use xlink:href="#a"/><use xlink:href="#b" x="-.004" y="2.146"/><use xlink:href="#1"/></svg><svg x="585"><use xlink:href="#a"/><use xlink:href="#b" x="-.004" y="2.146"/><use xlink:href="#1"/></svg><svg x="702"><use xlink:href="#a"/><use xlink:href="#b" x="-.004" y="2.146"/><use xlink:href="#1"/></svg><svg x="819"><use xlink:href="#a"/><use xlink:href="#b" x="-.004" y="2.146"/><use xlink:href="#1"/></svg><svg x="936"><use xlink:href="#a"/><use xlink:href="#b" x="4.996" y="2.146"/><use xlink:href="#1"/><use xlink:href="#2" y="2.171"/></svg><svg x="1053"><use xlink:href="#a"/><use xlink:href="#b" x="4.996" y="2.146"/><use xlink:href="#1"/><use xlink:href="#2" y="2.171"/></svg><svg x="1170"><use xlink:href="#a"/><use xlink:href="#b" x="4.996" y="2.146"/><use xlink:href="#1"/><use xlink:href="#2" y="2.171"/></svg><svg x="1287"><use xlink:href="#a"/><use xlink:href="#b" x="5.996" y="2.146"/><use xlink:href="#1"/><text y="3.841" class="d">➜</text><text x="3.006" y="3.841" class="e">~</text><text x="5.01" y="3.841" class="c">c</text></svg><svg x="1404"><use xlink:href="#a"/><use xlink:href="#b" x="6.996" y="2.146"/><use xlink:href="#1"/><text y="3.841" class="d">➜</text><text x="3.006" y="3.841" class="e">~</text><text x="5.01" y="3.841" class="c">cu</text></svg><svg x="1521"><use xlink:href="#a"/><use xlink:href="#b" x="7.996" y="2.146"/><use xlink:href="#1"/><text y="3.841" class="d">➜</text><text x="3.006" y="3.841" class="e">~</text><text x="5.01" y="3.841" class="c">cur</text></svg><svg x="1638"><use xlink:href="#a"/><use xlink:href="#b" x="8.996" y="2.146"/><use xlink:href="#1"/><use xlink:href="#3" y="2.171"/></svg><svg x="1755"><use xlink:href="#a"/><use xlink:href="#b" x="9.996" y="2.146"/><use xlink:href="#1"/><use xlink:href="#3" y="2.171"/></svg><svg x="1872"><use xlink:href="#a"/><use xlink:href="#b" x="4.996" y="4.317"/><use xlink:href="#1"/><text y="3.841" class="d">➜</text><text x="3.006" y="3.841" class="e">~</text><text x="5.01" y="3.841" class="c">curl</text><path class="m" d="M10.02 2.171h107v2.171h-107z"/><text x="10.02" y="3.841" class="n">http://localhost:3000/graph\?githubRepo\=https://github.com/Marvin9/hackernews-stories\&amp;entryFile\=src/inde</text><path class="m" d="M0 4.342h5v2.171H0z"/><text y="6.012" class="n">x.tsx</text></svg><svg x="1989"><use xlink:href="#a"/><use xlink:href="#b" x="5.996" y="4.317"/><use xlink:href="#1"/><use xlink:href="#4" y="2.171"/><text y="6.012" class="c">x.tsx</text></svg><svg x="2106"><use xlink:href="#a"/><use xlink:href="#b" x="6.996" y="4.317"/><use xlink:href="#1"/><use xlink:href="#4" y="2.171"/><use xlink:href="#5" y="4.342"/></svg><svg x="2223"><use xlink:href="#a"/><use xlink:href="#b" x="7.996" y="4.317"/><use xlink:href="#1"/><use xlink:href="#4" y="2.171"/><use xlink:href="#5" y="4.342"/></svg><svg x="2340"><use xlink:href="#a"/><use xlink:href="#b" x="8.996" y="4.317"/><use xlink:href="#1"/><use xlink:href="#4" y="2.171"/><text y="6.012" class="c">x.tsx</text><text x="6.012" y="6.012" class="c">|</text><text x="8.016" y="6.012" class="c">j</text></svg><svg x="2457"><use xlink:href="#a"/><use xlink:href="#b" x="9.996" y="4.317"/><use xlink:href="#1"/><use xlink:href="#4" y="2.171"/><use xlink:href="#6" y="4.342"/></svg><svg x="2574"><use xlink:href="#a"/><use xlink:href="#b" x="9.996" y="4.317"/><use xlink:href="#1"/><use xlink:href="#4" y="2.171"/><use xlink:href="#6" y="4.342"/></svg><svg x="2691"><use xlink:href="#a"/><use xlink:href="#b" x="-.004" y="6.488"/><use xlink:href="#1"/><use xlink:href="#4" y="2.171"/><use xlink:href="#6" y="4.342"/></svg><svg x="2808"><use xlink:href="#a"/><use xlink:href="#b" x="-.004" y="6.488"/><use xlink:href="#1"/><use xlink:href="#4" y="2.171"/><use xlink:href="#6" y="4.342"/></svg><svg x="2925"><use xlink:href="#a"/><use xlink:href="#b" x="51.996" y="6.488"/><use xlink:href="#1"/><use xlink:href="#4" y="2.171"/><use xlink:href="#6" y="4.342"/><text x="2.004" y="8.183" class="c">%</text><text x="4.008" y="8.183" class="c">Total</text><text x="13.026" y="8.183" class="c">%</text><text x="15.03" y="8.183" class="c">Received</text><text x="24.048" y="8.183" class="c">%</text><text x="26.052" y="8.183" class="c">Xferd</text><text x="33.066" y="8.183" class="c">Average</text><text x="41.082" y="8.183" class="c">Speed</text><text x="49.098" y="8.183" class="c">Tim</text></svg><svg x="3042"><use xlink:href="#a"/><use xlink:href="#b" x="77.996" y="10.83"/><use xlink:href="#1"/><use xlink:href="#4" y="2.171"/><use xlink:href="#6" y="4.342"/><use xlink:href="#7" y="6.513"/><use xlink:href="#8" y="8.684"/><text x="2.004" y="12.525" class="c">0</text><text x="8.016" y="12.525" class="c">0</text><text x="13.026" y="12.525" class="c">0</text><text x="19.038" y="12.525" class="c">0</text><text x="24.048" y="12.525" class="c">0</text><text x="30.06" y="12.525" class="c">0</text><text x="37.074" y="12.525" class="c">0</text><text x="44.088" y="12.525" class="c">0</text><text x="46.092" y="12.525" class="c">--:--:--</text><text x="55.11" y="12.525" class="c">--:--:--</text><text x="64.128" y="12.525" class="c">--:--:--</text><text x="77.154" y="12.525" class="c">0</text></svg><svg x="3159"><use xlink:href="#a"/><use xlink:href="#b" x="38.996" y="10.83"/><use xlink:href="#1"/><use xlink:href="#4" y="2.171"/><use xlink:href="#6" y="4.342"/><use xlink:href="#7" y="6.513"/><use xlink:href="#8" y="8.684"/><text y="12.525" class="c">100</text><text x="6.012" y="12.525" class="c">770</text><text x="11.022" y="12.525" class="c">100</text><text x="17.034" y="12.525" class="c">770</text><text x="24.048" y="12.525" class="c">0</text><text x="30.06" y="12.525" class="c">0</text><text x="35.07" y="12.525" class="c">815</text><text x="44.088" y="12.525" class="c">0</text><text x="46.092" y="12.525" class="c">--:--:--</text><text x="55.11" y="12.525" class="c">--:--:--</text><text x="64.128" y="12.525" class="c">--:--:--</text><text x="77.154" y="12.525" class="c">0</text></svg><svg x="3276"><use xlink:href="#a"/><use xlink:href="#b" x="-.004" y="13.001"/><use xlink:href="#1"/><use xlink:href="#4" y="2.171"/><use xlink:href="#6" y="4.342"/><use xlink:href="#7" y="6.513"/><use xlink:href="#8" y="8.684"/><use xlink:href="#9" y="10.855"/></svg><svg x="3393"><use xlink:href="#a"/><use xlink:href="#b" x="-.004" y="23.856"/><use xlink:href="#1"/><use xlink:href="#4" y="2.171"/><use xlink:href="#6" y="4.342"/><use xlink:href="#7" y="6.513"/><use xlink:href="#8" y="8.684"/><use xlink:href="#9" y="10.855"/><use xlink:href="#10" y="13.026"/><use xlink:href="#11" y="15.197"/><use xlink:href="#12" y="17.368"/><use xlink:href="#13" y="19.539"/><use xlink:href="#14" y="21.71"/></svg><svg x="3510"><use xlink:href="#a"/><use xlink:href="#b" x="-.004" y="47.737"/><use xlink:href="#1"/><use xlink:href="#4" y="2.171"/><use xlink:href="#6" y="4.342"/><use xlink:href="#7" y="6.513"/><use xlink:href="#8" y="8.684"/><use xlink:href="#9" y="10.855"/><use xlink:href="#10" y="13.026"/><use xlink:href="#11" y="15.197"/><use xlink:href="#12" y="17.368"/><use xlink:href="#13" y="19.539"/><use xlink:href="#14" y="21.71"/><use xlink:href="#15" y="23.881"/><use xlink:href="#16" y="26.052"/><use xlink:href="#17" y="28.223"/><use xlink:href="#18" y="30.394"/><use xlink:href="#19" y="32.565"/><use xlink:href="#15" y="34.736"/><use xlink:href="#20" y="36.907"/><use xlink:href="#17" y="39.078"/><use xlink:href="#21" y="41.249"/><use xlink:href="#22" y="43.42"/><use xlink:href="#23" y="45.591"/></svg><svg x="3627"><use xlink:href="#a"/><use xlink:href="#b" x="12.996" y="88.986"/><use xlink:href="#1"/><use xlink:href="#4" y="2.171"/><use xlink:href="#6" y="4.342"/><use xlink:href="#7" y="6.513"/><use xlink:href="#8" y="8.684"/><use xlink:href="#9" y="10.855"/><use xlink:href="#10" y="13.026"/><use xlink:href="#11" y="15.197"/><use xlink:href="#12" y="17.368"/><use xlink:href="#13" y="19.539"/><use xlink:href="#14" y="21.71"/><use xlink:href="#15" y="23.881"/><use xlink:href="#16" y="26.052"/><use xlink:href="#17" y="28.223"/><use xlink:href="#18" y="30.394"/><use xlink:href="#19" y="32.565"/><use xlink:href="#15" y="34.736"/><use xlink:href="#20" y="36.907"/><use xlink:href="#17" y="39.078"/><use xlink:href="#21" y="41.249"/><use xlink:href="#22" y="43.42"/><use xlink:href="#23" y="45.591"/><use xlink:href="#24" y="47.762"/><use xlink:href="#15" y="49.933"/><use xlink:href="#25" y="52.104"/><use xlink:href="#26" y="54.275"/><use xlink:href="#15" y="56.446"/><use xlink:href="#27" y="58.617"/><use xlink:href="#17" y="60.788"/><use xlink:href="#21" y="62.959"/><use xlink:href="#28" y="65.13"/><use xlink:href="#29" y="67.301"/><use xlink:href="#30" y="69.472"/><use xlink:href="#15" y="71.643"/><use xlink:href="#31" y="73.814"/><use xlink:href="#32" y="75.985"/><use xlink:href="#15" y="78.156"/><use xlink:href="#33" y="80.327"/><use xlink:href="#34" y="82.498"/><use xlink:href="#15" y="84.669"/><use xlink:href="#35" y="86.84"/><use xlink:href="#34" y="89.011"/></svg><svg x="3744"><use xlink:href="#a"/><use xlink:href="#b" x="-.004" y="106.354"/><use xlink:href="#6"/><use xlink:href="#7" y="2.171"/><use xlink:href="#8" y="4.342"/><use xlink:href="#9" y="6.513"/><use xlink:href="#10" y="8.684"/><use xlink:href="#11" y="10.855"/><use xlink:href="#12" y="13.026"/><use xlink:href="#13" y="15.197"/><use xlink:href="#14" y="17.368"/><use xlink:href="#15" y="19.539"/><use xlink:href="#16" y="21.71"/><use xlink:href="#17" y="23.881"/><use xlink:href="#18" y="26.052"/><use xlink:href="#19" y="28.223"/><use xlink:href="#15" y="30.394"/><use xlink:href="#20" y="32.565"/><use xlink:href="#17" y="34.736"/><use xlink:href="#21" y="36.907"/><use xlink:href="#22" y="39.078"/><use xlink:href="#23" y="41.249"/><use xlink:href="#24" y="43.42"/><use xlink:href="#15" y="45.591"/><use xlink:href="#25" y="47.762"/><use xlink:href="#26" y="49.933"/><use xlink:href="#15" y="52.104"/><use xlink:href="#27" y="54.275"/><use xlink:href="#17" y="56.446"/><use xlink:href="#21" y="58.617"/><use xlink:href="#28" y="60.788"/><use xlink:href="#29" y="62.959"/><use xlink:href="#30" y="65.13"/><use xlink:href="#15" y="67.301"/><use xlink:href="#31" y="69.472"/><use xlink:href="#32" y="71.643"/><use xlink:href="#15" y="73.814"/><use xlink:href="#33" y="75.985"/><use xlink:href="#34" y="78.156"/><use xlink:href="#15" y="80.327"/><use xlink:href="#35" y="82.498"/><use xlink:href="#17" y="84.669"/><use xlink:href="#28" y="86.84"/><use xlink:href="#36" y="89.011"/><use xlink:href="#15" y="91.182"/><use xlink:href="#37" y="93.353"/><use xlink:href="#38" y="95.524"/><use xlink:href="#39" y="97.695"/><use xlink:href="#40" y="99.866"/><use xlink:href="#41" y="102.037"/><use xlink:href="#42" y="104.208"/></svg><svg x="3861"><use xlink:href="#a"/><use xlink:href="#b" x="-.004" y="106.354"/><use xlink:href="#6"/><use xlink:href="#7" y="2.171"/><use xlink:href="#8" y="4.342"/><use xlink:href="#9" y="6.513"/><use xlink:href="#10" y="8.684"/><use xlink:href="#11" y="10.855"/><use xlink:href="#12" y="13.026"/><use xlink:href="#13" y="15.197"/><use xlink:href="#14" y="17.368"/><use xlink:href="#15" y="19.539"/><use xlink:href="#16" y="21.71"/><use xlink:href="#17" y="23.881"/><use xlink:href="#18" y="26.052"/><use xlink:href="#19" y="28.223"/><use xlink:href="#15" y="30.394"/><use xlink:href="#20" y="32.565"/><use xlink:href="#17" y="34.736"/><use xlink:href="#21" y="36.907"/><use xlink:href="#22" y="39.078"/><use xlink:href="#23" y="41.249"/><use xlink:href="#24" y="43.42"/><use xlink:href="#15" y="45.591"/><use xlink:href="#25" y="47.762"/><use xlink:href="#26" y="49.933"/><use xlink:href="#15" y="52.104"/><use xlink:href="#27" y="54.275"/><use xlink:href="#17" y="56.446"/><use xlink:href="#21" y="58.617"/><use xlink:href="#28" y="60.788"/><use xlink:href="#29" y="62.959"/><use xlink:href="#30" y="65.13"/><use xlink:href="#15" y="67.301"/><use xlink:href="#31" y="69.472"/><use xlink:href="#32" y="71.643"/><use xlink:href="#15" y="73.814"/><use xlink:href="#33" y="75.985"/><use xlink:href="#34" y="78.156"/><use xlink:href="#15" y="80.327"/><use xlink:href="#35" y="82.498"/><use xlink:href="#17" y="84.669"/><use xlink:href="#28" y="86.84"/><use xlink:href="#36" y="89.011"/><use xlink:href="#15" y="91.182"/><use xlink:href="#37" y="93.353"/><use xlink:href="#38" y="95.524"/><use xlink:href="#39" y="97.695"/><use xlink:href="#40" y="99.866"/><use xlink:href="#41" y="102.037"/><use xlink:href="#42" y="104.208"/></svg><svg x="3978"><use xlink:href="#a"/><use xlink:href="#b" x="-.004" y="106.354"/><use xlink:href="#6"/><use xlink:href="#7" y="2.171"/><use xlink:href="#8" y="4.342"/><use xlink:href="#9" y="6.513"/><use xlink:href="#10" y="8.684"/><use xlink:href="#11" y="10.855"/><use xlink:href="#12" y="13.026"/><use xlink:href="#13" y="15.197"/><use xlink:href="#14" y="17.368"/><use xlink:href="#15" y="19.539"/><use xlink:href="#16" y="21.71"/><use xlink:href="#17" y="23.881"/><use xlink:href="#18" y="26.052"/><use xlink:href="#19" y="28.223"/><use xlink:href="#15" y="30.394"/><use xlink:href="#20" y="32.565"/><use xlink:href="#17" y="34.736"/><use xlink:href="#21" y="36.907"/><use xlink:href="#22" y="39.078"/><use xlink:href="#23" y="41.249"/><use xlink:href="#24" y="43.42"/><use xlink:href="#15" y="45.591"/><use xlink:href="#25" y="47.762"/><use xlink:href="#26" y="49.933"/><use xlink:href="#15" y="52.104"/><use xlink:href="#27" y="54.275"/><use xlink:href="#17" y="56.446"/><use xlink:href="#21" y="58.617"/><use xlink:href="#28" y="60.788"/><use xlink:href="#29" y="62.959"/><use xlink:href="#30" y="65.13"/><use xlink:href="#15" y="67.301"/><use xlink:href="#31" y="69.472"/><use xlink:href="#32" y="71.643"/><use xlink:href="#15" y="73.814"/><use xlink:href="#33" y="75.985"/><use xlink:href="#34" y="78.156"/><use xlink:href="#15" y="80.327"/><use xlink:href="#35" y="82.498"/><use xlink:href="#17" y="84.669"/><use xlink:href="#28" y="86.84"/><use xlink:href="#36" y="89.011"/><use xlink:href="#15" y="91.182"/><use xlink:href="#37" y="93.353"/><use xlink:href="#38" y="95.524"/><use xlink:href="#39" y="97.695"/><use xlink:href="#40" y="99.866"/><use xlink:href="#41" y="102.037"/><use xlink:href="#42" y="104.208"/></svg><svg x="4095"><use xlink:href="#a"/><use xlink:href="#b" x="-.004" y="106.354"/><use xlink:href="#6"/><use xlink:href="#7" y="2.171"/><use xlink:href="#8" y="4.342"/><use xlink:href="#9" y="6.513"/><use xlink:href="#10" y="8.684"/><use xlink:href="#11" y="10.855"/><use xlink:href="#12" y="13.026"/><use xlink:href="#13" y="15.197"/><use xlink:href="#14" y="17.368"/><use xlink:href="#15" y="19.539"/><use xlink:href="#16" y="21.71"/><use xlink:href="#17" y="23.881"/><use xlink:href="#18" y="26.052"/><use xlink:href="#19" y="28.223"/><use xlink:href="#15" y="30.394"/><use xlink:href="#20" y="32.565"/><use xlink:href="#17" y="34.736"/><use xlink:href="#21" y="36.907"/><use xlink:href="#22" y="39.078"/><use xlink:href="#23" y="41.249"/><use xlink:href="#24" y="43.42"/><use xlink:href="#15" y="45.591"/><use xlink:href="#25" y="47.762"/><use xlink:href="#26" y="49.933"/><use xlink:href="#15" y="52.104"/><use xlink:href="#27" y="54.275"/><use xlink:href="#17" y="56.446"/><use xlink:href="#21" y="58.617"/><use xlink:href="#28" y="60.788"/><use xlink:href="#29" y="62.959"/><use xlink:href="#30" y="65.13"/><use xlink:href="#15" y="67.301"/><use xlink:href="#31" y="69.472"/><use xlink:href="#32" y="71.643"/><use xlink:href="#15" y="73.814"/><use xlink:href="#33" y="75.985"/><use xlink:href="#34" y="78.156"/><use xlink:href="#15" y="80.327"/><use xlink:href="#35" y="82.498"/><use xlink:href="#17" y="84.669"/><use xlink:href="#28" y="86.84"/><use xlink:href="#36" y="89.011"/><use xlink:href="#15" y="91.182"/><use xlink:href="#37" y="93.353"/><use xlink:href="#38" y="95.524"/><use xlink:href="#39" y="97.695"/><use xlink:href="#40" y="99.866"/><use xlink:href="#41" y="102.037"/><use xlink:href="#42" y="104.208"/></svg><svg x="4212"><use xlink:href="#a"/><use xlink:href="#b" x="-.004" y="106.354"/><use xlink:href="#6"/><use xlink:href="#7" y="2.171"/><use xlink:href="#8" y="4.342"/><use xlink:href="#9" y="6.513"/><use xlink:href="#10" y="8.684"/><use xlink:href="#11" y="10.855"/><use xlink:href="#12" y="13.026"/><use xlink:href="#13" y="15.197"/><use xlink:href="#14" y="17.368"/><use xlink:href="#15" y="19.539"/><use xlink:href="#16" y="21.71"/><use xlink:href="#17" y="23.881"/><use xlink:href="#18" y="26.052"/><use xlink:href="#19" y="28.223"/><use xlink:href="#15" y="30.394"/><use xlink:href="#20" y="32.565"/><use xlink:href="#17" y="34.736"/><use xlink:href="#21" y="36.907"/><use xlink:href="#22" y="39.078"/><use xlink:href="#23" y="41.249"/><use xlink:href="#24" y="43.42"/><use xlink:href="#15" y="45.591"/><use xlink:href="#25" y="47.762"/><use xlink:href="#26" y="49.933"/><use xlink:href="#15" y="52.104"/><use xlink:href="#27" y="54.275"/><use xlink:href="#17" y="56.446"/><use xlink:href="#21" y="58.617"/><use xlink:href="#28" y="60.788"/><use xlink:href="#29" y="62.959"/><use xlink:href="#30" y="65.13"/><use xlink:href="#15" y="67.301"/><use xlink:href="#31" y="69.472"/><use xlink:href="#32" y="71.643"/><use xlink:href="#15" y="73.814"/><use xlink:href="#33" y="75.985"/><use xlink:href="#34" y="78.156"/><use xlink:href="#15" y="80.327"/><use xlink:href="#35" y="82.498"/><use xlink:href="#17" y="84.669"/><use xlink:href="#28" y="86.84"/><use xlink:href="#36" y="89.011"/><use xlink:href="#15" y="91.182"/><use xlink:href="#37" y="93.353"/><use xlink:href="#38" y="95.524"/><use xlink:href="#39" y="97.695"/><use xlink:href="#40" y="99.866"/><use xlink:href="#41" y="102.037"/><use xlink:href="#42" y="104.208"/></svg><svg x="4329"><use xlink:href="#a"/><use xlink:href="#b" x="-.004" y="106.354"/><use xlink:href="#6"/><use xlink:href="#7" y="2.171"/><use xlink:href="#8" y="4.342"/><use xlink:href="#9" y="6.513"/><use xlink:href="#10" y="8.684"/><use xlink:href="#11" y="10.855"/><use xlink:href="#12" y="13.026"/><use xlink:href="#13" y="15.197"/><use xlink:href="#14" y="17.368"/><use xlink:href="#15" y="19.539"/><use xlink:href="#16" y="21.71"/><use xlink:href="#17" y="23.881"/><use xlink:href="#18" y="26.052"/><use xlink:href="#19" y="28.223"/><use xlink:href="#15" y="30.394"/><use xlink:href="#20" y="32.565"/><use xlink:href="#17" y="34.736"/><use xlink:href="#21" y="36.907"/><use xlink:href="#22" y="39.078"/><use xlink:href="#23" y="41.249"/><use xlink:href="#24" y="43.42"/><use xlink:href="#15" y="45.591"/><use xlink:href="#25" y="47.762"/><use xlink:href="#26" y="49.933"/><use xlink:href="#15" y="52.104"/><use xlink:href="#27" y="54.275"/><use xlink:href="#17" y="56.446"/><use xlink:href="#21" y="58.617"/><use xlink:href="#28" y="60.788"/><use xlink:href="#29" y="62.959"/><use xlink:href="#30" y="65.13"/><use xlink:href="#15" y="67.301"/><use xlink:href="#31" y="69.472"/><use xlink:href="#32" y="71.643"/><use xlink:href="#15" y="73.814"/><use xlink:href="#33" y="75.985"/><use xlink:href="#34" y="78.156"/><use xlink:href="#15" y="80.327"/><use xlink:href="#35" y="82.498"/><use xlink:href="#17" y="84.669"/><use xlink:href="#28" y="86.84"/><use xlink:href="#36" y="89.011"/><use xlink:href="#15" y="91.182"/><use xlink:href="#37" y="93.353"/><use xlink:href="#38" y="95.524"/><use xlink:href="#39" y="97.695"/><use xlink:href="#40" y="99.866"/><use xlink:href="#41" y="102.037"/><use xlink:href="#42" y="104.208"/></svg><svg x="4446"><use xlink:href="#a"/><use xlink:href="#b" x="4.996" y="106.354"/><use xlink:href="#6"/><use xlink:href="#7" y="2.171"/><use xlink:href="#8" y="4.342"/><use xlink:href="#9" y="6.513"/><use xlink:href="#10" y="8.684"/><use xlink:href="#11" y="10.855"/><use xlink:href="#12" y="13.026"/><use xlink:href="#13" y="15.197"/><use xlink:href="#14" y="17.368"/><use xlink:href="#15" y="19.539"/><use xlink:href="#16" y="21.71"/><use xlink:href="#17" y="23.881"/><use xlink:href="#18" y="26.052"/><use xlink:href="#19" y="28.223"/><use xlink:href="#15" y="30.394"/><use xlink:href="#20" y="32.565"/><use xlink:href="#17" y="34.736"/><use xlink:href="#21" y="36.907"/><use xlink:href="#22" y="39.078"/><use xlink:href="#23" y="41.249"/><use xlink:href="#24" y="43.42"/><use xlink:href="#15" y="45.591"/><use xlink:href="#25" y="47.762"/><use xlink:href="#26" y="49.933"/><use xlink:href="#15" y="52.104"/><use xlink:href="#27" y="54.275"/><use xlink:href="#17" y="56.446"/><use xlink:href="#21" y="58.617"/><use xlink:href="#28" y="60.788"/><use xlink:href="#29" y="62.959"/><use xlink:href="#30" y="65.13"/><use xlink:href="#15" y="67.301"/><use xlink:href="#31" y="69.472"/><use xlink:href="#32" y="71.643"/><use xlink:href="#15" y="73.814"/><use xlink:href="#33" y="75.985"/><use xlink:href="#34" y="78.156"/><use xlink:href="#15" y="80.327"/><use xlink:href="#35" y="82.498"/><use xlink:href="#17" y="84.669"/><use xlink:href="#28" y="86.84"/><use xlink:href="#36" y="89.011"/><use xlink:href="#15" y="91.182"/><use xlink:href="#37" y="93.353"/><use xlink:href="#38" y="95.524"/><use xlink:href="#39" y="97.695"/><use xlink:href="#40" y="99.866"/><use xlink:href="#41" y="102.037"/><use xlink:href="#42" y="104.208"/><use xlink:href="#2" y="106.379"/></svg><svg x="4563"><use xlink:href="#a"/><use xlink:href="#b" x="4.996" y="106.354"/><use xlink:href="#6"/><use xlink:href="#7" y="2.171"/><use xlink:href="#8" y="4.342"/><use xlink:href="#9" y="6.513"/><use xlink:href="#10" y="8.684"/><use xlink:href="#11" y="10.855"/><use xlink:href="#12" y="13.026"/><use xlink:href="#13" y="15.197"/><use xlink:href="#14" y="17.368"/><use xlink:href="#15" y="19.539"/><use xlink:href="#16" y="21.71"/><use xlink:href="#17" y="23.881"/><use xlink:href="#18" y="26.052"/><use xlink:href="#19" y="28.223"/><use xlink:href="#15" y="30.394"/><use xlink:href="#20" y="32.565"/><use xlink:href="#17" y="34.736"/><use xlink:href="#21" y="36.907"/><use xlink:href="#22" y="39.078"/><use xlink:href="#23" y="41.249"/><use xlink:href="#24" y="43.42"/><use xlink:href="#15" y="45.591"/><use xlink:href="#25" y="47.762"/><use xlink:href="#26" y="49.933"/><use xlink:href="#15" y="52.104"/><use xlink:href="#27" y="54.275"/><use xlink:href="#17" y="56.446"/><use xlink:href="#21" y="58.617"/><use xlink:href="#28" y="60.788"/><use xlink:href="#29" y="62.959"/><use xlink:href="#30" y="65.13"/><use xlink:href="#15" y="67.301"/><use xlink:href="#31" y="69.472"/><use xlink:href="#32" y="71.643"/><use xlink:href="#15" y="73.814"/><use xlink:href="#33" y="75.985"/><use xlink:href="#34" y="78.156"/><use xlink:href="#15" y="80.327"/><use xlink:href="#35" y="82.498"/><use xlink:href="#17" y="84.669"/><use xlink:href="#28" y="86.84"/><use xlink:href="#36" y="89.011"/><use xlink:href="#15" y="91.182"/><use xlink:href="#37" y="93.353"/><use xlink:href="#38" y="95.524"/><use xlink:href="#39" y="97.695"/><use xlink:href="#40" y="99.866"/><use xlink:href="#41" y="102.037"/><use xlink:href="#42" y="104.208"/><use xlink:href="#2" y="106.379"/></svg><svg x="4680"><use xlink:href="#a"/><use xlink:href="#b" x="-.004" y="106.354"/><use xlink:href="#7"/><use xlink:href="#8" y="2.171"/><use xlink:href="#9" y="4.342"/><use xlink:href="#10" y="6.513"/><use xlink:href="#11" y="8.684"/><use xlink:href="#12" y="10.855"/><use xlink:href="#13" y="13.026"/><use xlink:href="#14" y="15.197"/><use xlink:href="#15" y="17.368"/><use xlink:href="#16" y="19.539"/><use xlink:href="#17" y="21.71"/><use xlink:href="#18" y="23.881"/><use xlink:href="#19" y="26.052"/><use xlink:href="#15" y="28.223"/><use xlink:href="#20" y="30.394"/><use xlink:href="#17" y="32.565"/><use xlink:href="#21" y="34.736"/><use xlink:href="#22" y="36.907"/><use xlink:href="#23" y="39.078"/><use xlink:href="#24" y="41.249"/><use xlink:href="#15" y="43.42"/><use xlink:href="#25" y="45.591"/><use xlink:href="#26" y="47.762"/><use xlink:href="#15" y="49.933"/><use xlink:href="#27" y="52.104"/><use xlink:href="#17" y="54.275"/><use xlink:href="#21" y="56.446"/><use xlink:href="#28" y="58.617"/><use xlink:href="#29" y="60.788"/><use xlink:href="#30" y="62.959"/><use xlink:href="#15" y="65.13"/><use xlink:href="#31" y="67.301"/><use xlink:href="#32" y="69.472"/><use xlink:href="#15" y="71.643"/><use xlink:href="#33" y="73.814"/><use xlink:href="#34" y="75.985"/><use xlink:href="#15" y="78.156"/><use xlink:href="#35" y="80.327"/><use xlink:href="#17" y="82.498"/><use xlink:href="#28" y="84.669"/><use xlink:href="#36" y="86.84"/><use xlink:href="#15" y="89.011"/><use xlink:href="#37" y="91.182"/><use xlink:href="#38" y="93.353"/><use xlink:href="#39" y="95.524"/><use xlink:href="#40" y="97.695"/><use xlink:href="#41" y="99.866"/><use xlink:href="#42" y="102.037"/><use xlink:href="#2" y="104.208"/></svg><svg x="4797"><use xlink:href="#a"/><use xlink:href="#b" x="16.996" y="106.354"/><use xlink:href="#7"/><use xlink:href="#8" y="2.171"/><use xlink:href="#9" y="4.342"/><use xlink:href="#10" y="6.513"/><use xlink:href="#11" y="8.684"/><use xlink:href="#12" y="10.855"/><use xlink:href="#13" y="13.026"/><use xlink:href="#14" y="15.197"/><use xlink:href="#15" y="17.368"/><use xlink:href="#16" y="19.539"/><use xlink:href="#17" y="21.71"/><use xlink:href="#18" y="23.881"/><use xlink:href="#19" y="26.052"/><use xlink:href="#15" y="28.223"/><use xlink:href="#20" y="30.394"/><use xlink:href="#17" y="32.565"/><use xlink:href="#21" y="34.736"/><use xlink:href="#22" y="36.907"/><use xlink:href="#23" y="39.078"/><use xlink:href="#24" y="41.249"/><use xlink:href="#15" y="43.42"/><use xlink:href="#25" y="45.591"/><use xlink:href="#26" y="47.762"/><use xlink:href="#15" y="49.933"/><use xlink:href="#27" y="52.104"/><use xlink:href="#17" y="54.275"/><use xlink:href="#21" y="56.446"/><use xlink:href="#28" y="58.617"/><use xlink:href="#29" y="60.788"/><use xlink:href="#30" y="62.959"/><use xlink:href="#15" y="65.13"/><use xlink:href="#31" y="67.301"/><use xlink:href="#32" y="69.472"/><use xlink:href="#15" y="71.643"/><use xlink:href="#33" y="73.814"/><use xlink:href="#34" y="75.985"/><use xlink:href="#15" y="78.156"/><use xlink:href="#35" y="80.327"/><use xlink:href="#17" y="82.498"/><use xlink:href="#28" y="84.669"/><use xlink:href="#36" y="86.84"/><use xlink:href="#15" y="89.011"/><use xlink:href="#37" y="91.182"/><use xlink:href="#38" y="93.353"/><use xlink:href="#39" y="95.524"/><use xlink:href="#40" y="97.695"/><use xlink:href="#41" y="99.866"/><use xlink:href="#42" y="102.037"/><use xlink:href="#2" y="104.208"/><text y="108.049" class="c">Saving</text><text x="7.014" y="108.049" class="c">session...</text></svg><svg x="4914"><use xlink:href="#a"/><use xlink:href="#b" x="-.004" y="106.354"/><use xlink:href="#8"/><use xlink:href="#9" y="2.171"/><use xlink:href="#10" y="4.342"/><use xlink:href="#11" y="6.513"/><use xlink:href="#12" y="8.684"/><use xlink:href="#13" y="10.855"/><use xlink:href="#14" y="13.026"/><use xlink:href="#15" y="15.197"/><use xlink:href="#16" y="17.368"/><use xlink:href="#17" y="19.539"/><use xlink:href="#18" y="21.71"/><use xlink:href="#19" y="23.881"/><use xlink:href="#15" y="26.052"/><use xlink:href="#20" y="28.223"/><use xlink:href="#17" y="30.394"/><use xlink:href="#21" y="32.565"/><use xlink:href="#22" y="34.736"/><use xlink:href="#23" y="36.907"/><use xlink:href="#24" y="39.078"/><use xlink:href="#15" y="41.249"/><use xlink:href="#25" y="43.42"/><use xlink:href="#26" y="45.591"/><use xlink:href="#15" y="47.762"/><use xlink:href="#27" y="49.933"/><use xlink:href="#17" y="52.104"/><use xlink:href="#21" y="54.275"/><use xlink:href="#28" y="56.446"/><use xlink:href="#29" y="58.617"/><use xlink:href="#30" y="60.788"/><use xlink:href="#15" y="62.959"/><use xlink:href="#31" y="65.13"/><use xlink:href="#32" y="67.301"/><use xlink:href="#15" y="69.472"/><use xlink:href="#33" y="71.643"/><use xlink:href="#34" y="73.814"/><use xlink:href="#15" y="75.985"/><use xlink:href="#35" y="78.156"/><use xlink:href="#17" y="80.327"/><use xlink:href="#28" y="82.498"/><use xlink:href="#36" y="84.669"/><use xlink:href="#15" y="86.84"/><use xlink:href="#37" y="89.011"/><use xlink:href="#38" y="91.182"/><use xlink:href="#39" y="93.353"/><use xlink:href="#40" y="95.524"/><use xlink:href="#41" y="97.695"/><use xlink:href="#42" y="99.866"/><use xlink:href="#2" y="102.037"/><text y="105.878" class="c">Saving</text><text x="7.014" y="105.878" class="c">session...completed.</text></svg></svg></g></g></svg></svg>